<svg xmlns="http://www.w3.org/2000/svg" viewBox="0 0 1600 360" role="img" aria-label="BuilderQuest — the second brain that teaches you AI">
  <defs>
    <linearGradient id="bg" x1="0" y1="0" x2="1" y2="1">
      <stop offset="0%" stop-color="#0c0820"/>
      <stop offset="55%" stop-color="#1f1248"/>
      <stop offset="100%" stop-color="#4a2faa"/>
    </linearGradient>
    <radialGradient id="purpleGlow" cx="50%" cy="50%" r="50%">
      <stop offset="0%" stop-color="#7c5cff" stop-opacity="0.55"/>
      <stop offset="100%" stop-color="#7c5cff" stop-opacity="0"/>
    </radialGradient>
    <radialGradient id="pinkGlow" cx="50%" cy="50%" r="50%">
      <stop offset="0%" stop-color="#ff5d8f" stop-opacity="0.5"/>
      <stop offset="100%" stop-color="#ff5d8f" stop-opacity="0"/>
    </radialGradient>
  </defs>

  <rect width="1600" height="360" fill="url(#bg)"/>

  <ellipse cx="1080" cy="180" rx="540" ry="280" fill="url(#purpleGlow)"/>
  <ellipse cx="1300" cy="240" rx="320" ry="200" fill="url(#pinkGlow)"/>

  <g fill="#ffffff" opacity="0.35">
    <circle cx="80" cy="60" r="1.4"/>
    <circle cx="140" cy="300" r="1.2"/>
    <circle cx="40" cy="180" r="1"/>
    <circle cx="220" cy="40" r="1"/>
    <circle cx="60" cy="320" r="1.2"/>
    <circle cx="180" cy="200" r="1"/>
    <circle cx="1560" cy="40" r="1.4"/>
    <circle cx="1520" cy="320" r="1.2"/>
    <circle cx="1580" cy="180" r="1"/>
    <circle cx="1450" cy="60" r="1"/>
    <circle cx="1490" cy="280" r="1.2"/>
  </g>

  <g stroke="#ffffff" stroke-opacity="0.16" stroke-width="1" fill="none">
    <line x1="380" y1="180" x2="600" y2="120"/>
    <line x1="380" y1="180" x2="540" y2="240"/>
    <line x1="380" y1="180" x2="700" y2="200"/>
    <line x1="600" y1="120" x2="700" y2="200"/>
    <line x1="600" y1="120" x2="780" y2="80"/>
    <line x1="700" y1="200" x2="780" y2="80"/>
    <line x1="700" y1="200" x2="820" y2="170"/>
    <line x1="700" y1="200" x2="760" y2="280"/>
    <line x1="540" y1="240" x2="760" y2="280"/>
    <line x1="820" y1="170" x2="940" y2="120"/>
    <line x1="820" y1="170" x2="980" y2="220"/>
    <line x1="820" y1="170" x2="900" y2="270"/>
    <line x1="940" y1="120" x2="1080" y2="80"/>
    <line x1="940" y1="120" x2="1060" y2="180"/>
    <line x1="980" y1="220" x2="1060" y2="180"/>
    <line x1="980" y1="220" x2="1100" y2="270"/>
    <line x1="1060" y1="180" x2="1180" y2="140"/>
    <line x1="1060" y1="180" x2="1200" y2="220"/>
    <line x1="1080" y1="80" x2="1180" y2="140"/>
    <line x1="1180" y1="140" x2="1300" y2="100"/>
    <line x1="1180" y1="140" x2="1280" y2="200"/>
    <line x1="1200" y1="220" x2="1280" y2="200"/>
    <line x1="1200" y1="220" x2="1240" y2="290"/>
    <line x1="1100" y1="270" x2="1240" y2="290"/>
    <line x1="1280" y1="200" x2="1380" y2="160"/>
    <line x1="1300" y1="100" x2="1380" y2="160"/>
    <line x1="1380" y1="160" x2="1460" y2="120"/>
    <line x1="1380" y1="160" x2="1440" y2="240"/>
    <line x1="900" y1="270" x2="760" y2="280"/>
    <line x1="900" y1="270" x2="1100" y2="270"/>
  </g>

  <g>
    <circle cx="380" cy="180" r="3" fill="#ffffff" opacity="0.7"/>
    <circle cx="540" cy="240" r="2.5" fill="#ffffff" opacity="0.6"/>
    <circle cx="600" cy="120" r="3" fill="#ffffff" opacity="0.7"/>
    <circle cx="780" cy="80" r="3" fill="#ffffff" opacity="0.65"/>
    <circle cx="760" cy="280" r="3" fill="#ffffff" opacity="0.6"/>
    <circle cx="940" cy="120" r="3" fill="#ffffff" opacity="0.7"/>
    <circle cx="1080" cy="80" r="3" fill="#ffffff" opacity="0.7"/>
    <circle cx="1100" cy="270" r="3" fill="#ffffff" opacity="0.65"/>
    <circle cx="900" cy="270" r="2.5" fill="#ffffff" opacity="0.55"/>
    <circle cx="1300" cy="100" r="3" fill="#ffffff" opacity="0.7"/>
    <circle cx="1240" cy="290" r="3" fill="#ffffff" opacity="0.6"/>
    <circle cx="1380" cy="160" r="3" fill="#ffffff" opacity="0.7"/>
    <circle cx="1460" cy="120" r="2.5" fill="#ffffff" opacity="0.55"/>
    <circle cx="1440" cy="240" r="2.5" fill="#ffffff" opacity="0.55"/>

    <circle cx="700" cy="200" r="22" fill="#ff5d8f" opacity="0.18"/>
    <circle cx="700" cy="200" r="9" fill="#ff7da6"/>
    <circle cx="820" cy="170" r="26" fill="#7c5cff" opacity="0.22"/>
    <circle cx="820" cy="170" r="10" fill="#a892ff"/>
    <circle cx="1060" cy="180" r="34" fill="#ffffff" opacity="0.14"/>
    <circle cx="1060" cy="180" r="12" fill="#ffffff"/>
    <circle cx="1180" cy="140" r="22" fill="#7c5cff" opacity="0.22"/>
    <circle cx="1180" cy="140" r="9" fill="#a892ff"/>
    <circle cx="1200" cy="220" r="22" fill="#ff5d8f" opacity="0.2"/>
    <circle cx="1200" cy="220" r="9" fill="#ff7da6"/>
    <circle cx="1280" cy="200" r="18" fill="#ffffff" opacity="0.12"/>
    <circle cx="1280" cy="200" r="6" fill="#ffffff" opacity="0.85"/>
  </g>

  <g font-family="ui-sans-serif, system-ui, -apple-system, BlinkMacSystemFont, 'Segoe UI', sans-serif" fill="#ffffff">
    <text x="80" y="170" font-size="68" font-weight="800" letter-spacing="-2">BuilderQuest</text>
    <text x="84" y="212" font-size="22" font-weight="500" fill="#dcd3ff" letter-spacing="0.2">The second brain that teaches you AI.</text>
    <text x="84" y="262" font-size="13" font-weight="600" fill="#a89bd9" letter-spacing="3.5">5-MIN BITES  ·  PERSONALIZED  ·  SOCIAL  ·  OPEN SOURCE</text>
  </g>
</svg>
